<?xml version="1.0" encoding="UTF-8"?>
<svg width="36px" height="36px" viewBox="0 0 36 36" version="1.1" xmlns="http://www.w3.org/2000/svg" xmlns:xlink="http://www.w3.org/1999/xlink">
    <!-- Generator: Sketch 64 (93537) - https://sketch.com -->
    <title>Home Logo</title>
    <desc>Created with Sketch.</desc>
    <defs>
        <path d="M18,0 C20.2339173,0 22.3727871,0.40694663 24.3465211,1.15075156 C23.0693235,2.31285186 22.1984673,3.91307809 21.9716899,5.71384412 C20.6276507,5.25655691 19.1866228,5.00869088 17.6877013,5.00869088 C10.3397183,5.00869088 4.3830011,10.9652503 4.3830011,18.3130387 C4.3830011,25.6608271 10.3397183,31.6173865 17.6877013,31.6173865 C25.0356843,31.6173865 30.9924014,25.6608271 30.9924014,18.3130387 C30.9924014,16.8138221 30.7444181,15.3725235 30.2872314,14.0279219 C32.087348,13.8013009 33.6873028,12.9305065 34.8488269,11.6537492 C35.5930534,13.6272129 36,15.7660827 36,18 C36,27.9411255 27.9411255,36 18,36 C8.0588745,36 0,27.9411255 0,18 C0,8.0588745 8.0588745,0 18,0 Z M29.3478261,0.782608696 C32.5894974,0.782608696 35.2173913,3.41050256 35.2173913,6.65217391 C35.2173913,9.89384527 32.5894974,12.5217391 29.3478261,12.5217391 C28.5306331,12.5217391 27.7524452,12.3547381 27.045529,12.0530025 L24.4711554,14.4226047 C25.3299686,15.8015504 25.826087,17.4297944 25.826087,19.173913 C25.826087,24.1444758 21.7966497,28.173913 16.826087,28.173913 C11.8555242,28.173913 7.82608696,24.1444758 7.82608696,19.173913 C7.82608696,14.2033503 11.8555242,10.173913 16.826087,10.173913 C18.5702056,10.173913 20.1984496,10.6700314 21.5773953,11.5288446 L23.9469975,8.954471 C23.6452619,8.2475548 23.4782609,7.46936695 23.4782609,6.65217391 C23.4782609,3.41050256 26.1061547,0.782608696 29.3478261,0.782608696 Z" id="path-1"></path>
    </defs>
    <g id="Home-Logo" stroke="none" stroke-width="1" fill="none" fill-rule="evenodd">
        <mask id="mask-2" fill="white">
            <use xlink:href="#path-1"></use>
        </mask>
        <use id="Specos-Logo" fill="#323232" fill-rule="nonzero" xlink:href="#path-1"></use>
    </g>
</svg>